<?xml version="1.0"?><svg width="736.7442" height="773.98657" xmlns="http://www.w3.org/2000/svg">
 <title>Signpost</title>

 <metadata id="metadata7">image/svg+xml</metadata>
 <g>
  <title>Layer 1</title>
  <g externalResourcesRequired="false" transform="matrix(0.0689071 0 0 0.0689071 1370.74 -27.108)" id="Sign and Shadow">
   <path fill="#ffffff" stroke="#ffffff" stroke-miterlimit="4" d="m-11903.308594,11396.660156c17.813477,6.389648 26.22168,28.445313 18.766602,49.227539c-7.455078,20.782227 -27.963867,32.464844 -45.77832,26.075195c-17.813477,-6.389648 -26.22168,-28.445313 -18.766602,-49.227539c7.455078,-20.783203 27.962891,-32.46582 45.77832,-26.075195zm-139.578125,-46.073242c17.813477,6.390625 26.222656,28.445313 18.767578,49.228516c-7.455078,20.78125 -27.963867,32.46582 -45.779297,26.074219c-17.813477,-6.389648 -26.22168,-28.443359 -18.766602,-49.227539c7.454102,-20.783203 27.962891,-32.464844 45.77832,-26.075195zm-129.09082,-46.071289c17.814453,6.390625 26.22168,28.444336 18.766602,49.227539c-7.455078,20.78418 -27.961914,32.464844 -45.77832,26.075195c-17.813477,-6.389648 -26.220703,-28.443359 -18.765625,-49.227539c7.455078,-20.783203 27.962891,-32.464844 45.777344,-26.075195zm-123.711914,-46.070313c17.816406,6.389648 26.223633,28.442383 18.768555,49.226563c-7.455078,20.78418 -27.963867,32.464844 -45.77832,26.075195c-17.814453,-6.390625 -26.22168,-28.444336 -18.766602,-49.227539c7.455078,-20.783203 27.961914,-32.46582 45.776367,-26.074219zm-112.953125,-46.073242c17.814453,6.389648 26.222656,28.443359 18.767578,49.226563c-7.455078,20.783203 -27.962891,32.46582 -45.77832,26.075195c-17.813477,-6.390625 -26.222656,-28.443359 -18.767578,-49.226563c7.455078,-20.78418 27.964844,-32.46582 45.77832,-26.075195zm-129.089844,-46.072266c17.81543,6.389648 26.223633,28.444336 18.768555,49.227539c-7.455078,20.782227 -27.964844,32.464844 -45.77832,26.075195c-17.814453,-6.389648 -26.222656,-28.444336 -18.767578,-49.228516c7.455078,-20.782227 27.963867,-32.463867 45.777344,-26.074219zm-134.467773,-46.072266c17.814453,6.390625 26.222656,28.443359 18.767578,49.227539c-7.455078,20.78418 -27.963867,32.464844 -45.77832,26.075195c-17.81543,-6.390625 -26.22168,-28.444336 -18.766602,-49.227539c7.454102,-20.783203 27.962891,-32.464844 45.777344,-26.075195zm-118.333008,-46.070313c17.816406,6.389648 26.223633,28.443359 18.768555,49.226563c-7.455078,20.783203 -27.961914,32.464844 -45.77832,26.075195c-17.81543,-6.389648 -26.22168,-28.444336 -18.766602,-49.226563c7.454102,-20.78418 27.963867,-32.46582 45.776367,-26.075195zm-145.225586,-46.072266c17.81543,6.389648 26.222656,28.444336 18.767578,49.226563c-7.455078,20.78418 -27.962891,32.46582 -45.777344,26.075195c-17.814453,-6.389648 -26.222656,-28.443359 -18.767578,-49.226563c7.456055,-20.783203 27.963867,-32.464844 45.777344,-26.075195zm-134.737305,-46.072266c17.816406,6.390625 26.222656,28.444336 18.768555,49.227539c-7.455078,20.78418 -27.963867,32.46582 -45.77832,26.076172c-17.81543,-6.391602 -26.22168,-28.445313 -18.767578,-49.228516c7.455078,-20.782227 27.963867,-32.46582 45.777344,-26.075195zm-139.577148,-46.071289c17.81543,6.389648 26.223633,28.444336 18.768555,49.226563c-7.455078,20.78418 -27.962891,32.46582 -45.779297,26.076172c-17.814453,-6.390625 -26.220703,-28.445313 -18.765625,-49.228516c7.453125,-20.78125 27.961914,-32.464844 45.776367,-26.074219zm-129.089844,-46.072266c17.81543,6.390625 26.22168,28.444336 18.766602,49.227539c-7.454102,20.782227 -27.961914,32.464844 -45.776367,26.075195c-17.816406,-6.389648 -26.223633,-28.444336 -18.768555,-49.226563c7.455078,-20.78418 27.964844,-32.466797 45.77832,-26.076172zm-123.709961,-46.072266c17.814453,6.389648 26.220703,28.444336 18.765625,49.227539c-7.454102,20.783203 -27.962891,32.464844 -45.776367,26.074219c-17.81543,-6.388672 -26.222656,-28.441406 -18.767578,-49.226563c7.455078,-20.783203 27.961914,-32.463867 45.77832,-26.075195zm-112.955078,-46.072266c17.816406,6.391602 26.222656,28.445313 18.768555,49.228516c-7.455078,20.783203 -27.962891,32.464844 -45.77832,26.075195c-17.81543,-6.390625 -26.22168,-28.443359 -18.767578,-49.228516c7.454102,-20.782227 27.963867,-32.464844 45.777344,-26.075195zm-129.088867,-46.070313c17.81543,6.388672 26.22168,28.442383 18.766602,49.226563c-7.455078,20.783203 -27.962891,32.464844 -45.777344,26.075195c-17.814453,-6.390625 -26.22168,-28.444336 -18.766602,-49.227539c7.455078,-20.78418 27.962891,-32.46582 45.777344,-26.074219zm-134.467773,-46.073242c17.813477,6.390625 26.222656,28.444336 18.767578,49.227539c-7.455078,20.78418 -27.963867,32.46582 -45.779297,26.074219c-17.813477,-6.388672 -26.22168,-28.441406 -18.766602,-49.226563c7.455078,-20.783203 27.962891,-32.463867 45.77832,-26.075195zm-118.332031,-46.071289c17.814453,6.390625 26.22168,28.444336 18.766602,49.227539c-7.455078,20.78418 -27.961914,32.464844 -45.776367,26.074219c-17.816406,-6.389648 -26.223633,-28.443359 -18.768555,-49.226563c7.455078,-20.783203 27.962891,-32.464844 45.77832,-26.075195zm-145.226563,-46.071289c17.81543,6.389648 26.222656,28.442383 18.767578,49.226563c-7.455078,20.78418 -27.962891,32.464844 -45.777344,26.076172c-17.81543,-6.391602 -26.222656,-28.444336 -18.767578,-49.228516c7.455078,-20.78418 27.963867,-32.464844 45.777344,-26.074219zm-123.978516,-46.072266c17.813477,6.390625 26.22168,28.442383 18.766602,49.226563c-7.455078,20.78418 -27.962891,32.46582 -45.77832,26.075195c-17.813477,-6.389648 -26.220703,-28.443359 -18.765625,-49.226563c7.453125,-20.78418 27.961914,-32.46582 45.777344,-26.075195zm-139.578125,-46.072266c17.81543,6.388672 26.22168,28.442383 18.766602,49.227539c-7.453125,20.782227 -27.961914,32.464844 -45.777344,26.074219c-17.814453,-6.390625 -26.222656,-28.443359 -18.767578,-49.226563c7.455078,-20.78418 27.963867,-32.46582 45.77832,-26.075195zm-129.088867,-46.072266c17.813477,6.390625 26.220703,28.444336 18.765625,49.227539c-7.455078,20.78418 -27.962891,32.464844 -45.776367,26.075195c-17.81543,-6.390625 -26.222656,-28.443359 -18.767578,-49.227539c7.455078,-20.783203 27.962891,-32.464844 45.77832,-26.075195zm-123.710938,-46.070313c17.813477,6.389648 26.22168,28.443359 18.766602,49.226563c-7.455078,20.783203 -27.963867,32.464844 -45.777344,26.075195c-17.81543,-6.389648 -26.222656,-28.444336 -18.767578,-49.227539c7.455078,-20.782227 27.961914,-32.464844 45.77832,-26.074219zm-112.955078,-46.072266c17.814453,6.389648 26.222656,28.444336 18.767578,49.226563c-7.455078,20.783203 -27.963867,32.46582 -45.777344,26.075195c-17.81543,-6.389648 -26.222656,-28.444336 -18.768555,-49.226563c7.455078,-20.78418 27.964844,-32.464844 45.77832,-26.075195zm-129.088867,-46.071289c17.81543,6.391602 26.222656,28.444336 18.767578,49.228516c-7.455078,20.782227 -27.963867,32.464844 -45.777344,26.073242c-17.81543,-6.387695 -26.222656,-28.441406 -18.767578,-49.226563c7.455078,-20.783203 27.961914,-32.463867 45.777344,-26.075195zm-134.467773,-46.071289c17.813477,6.390625 26.22168,28.444336 18.767578,49.227539c-7.455078,20.783203 -27.963867,32.464844 -45.779297,26.075195c-17.813477,-6.390625 -26.222656,-28.444336 -18.767578,-49.227539c7.455078,-20.78418 27.963867,-32.464844 45.779297,-26.075195zm-118.332031,-46.071289c17.814453,6.389648 26.22168,28.443359 18.766602,49.227539c-7.455078,20.782227 -27.962891,32.464844 -45.777344,26.075195c-17.81543,-6.390625 -26.222656,-28.445313 -18.767578,-49.226563c7.455078,-20.78418 27.963867,-32.467773 45.77832,-26.076172zm-145.226563,-46.072266c17.81543,6.390625 26.22168,28.444336 18.767578,49.226563c-7.455078,20.78418 -27.963867,32.46582 -45.777344,26.075195c-17.81543,-6.389648 -26.222656,-28.442383 -18.768555,-49.226563c7.455078,-20.783203 27.963867,-32.464844 45.77832,-26.075195zm-113.22168,-46.071289c17.813477,6.391602 26.220703,28.444336 18.765625,49.228516c-7.455078,20.783203 -27.961914,32.463867 -45.776367,26.074219c-17.81543,-6.389648 -26.223633,-28.442383 -18.768555,-49.227539c7.455078,-20.783203 27.963867,-32.463867 45.779297,-26.075195zm-139.578125,-46.070313c17.814453,6.389648 26.22168,28.442383 18.766602,49.226563c-7.454102,20.78418 -27.963867,32.464844 -45.776367,26.075195c-17.816406,-6.389648 -26.223633,-28.443359 -18.768555,-49.227539c7.455078,-20.783203 27.962891,-32.464844 45.77832,-26.074219zm-129.089844,-46.072266c17.814453,6.389648 26.222656,28.444336 18.767578,49.226563c-7.455078,20.783203 -27.963867,32.46582 -45.777344,26.075195c-17.81543,-6.389648 -26.223633,-28.444336 -18.768555,-49.226563c7.455078,-20.783203 27.963867,-32.463867 45.77832,-26.075195zm-123.709961,-46.071289c17.8125,6.390625 26.220703,28.444336 18.765625,49.227539c-7.455078,20.783203 -27.962891,32.464844 -45.77832,26.074219c-17.8125,-6.389648 -26.22168,-28.443359 -18.766602,-49.226563c7.455078,-20.78418 27.963867,-32.464844 45.779297,-26.075195zm-112.954102,-46.071289c17.814453,6.390625 26.22168,28.443359 18.766602,49.227539c-7.455078,20.783203 -27.962891,32.464844 -45.776367,26.075195c-17.816406,-6.390625 -26.223633,-28.444336 -18.768555,-49.227539c7.455078,-20.783203 27.961914,-32.464844 45.77832,-26.075195zm-129.088867,-46.071289c17.8125,6.390625 26.220703,28.443359 18.766602,49.227539c-7.455078,20.783203 -27.963867,32.464844 -45.779297,26.075195c-17.8125,-6.390625 -26.22168,-28.444336 -18.766602,-49.227539c7.455078,-20.783203 27.963867,-32.464844 45.779297,-26.075195zm-134.470703,-46.071289c17.816406,6.390625 26.223633,28.444336 18.768555,49.227539c-7.455078,20.783203 -27.961914,32.464844 -45.77832,26.075195c-17.814453,-6.390625 -26.22168,-28.444336 -18.766602,-49.227539c7.455078,-20.783203 27.962891,-32.464844 45.776367,-26.075195zm-118.331055,-46.071289c17.814453,6.389648 26.223633,28.444336 18.768555,49.226563c-7.455078,20.78418 -27.963867,32.464844 -45.779297,26.076172c-17.813477,-6.389648 -26.22168,-28.444336 -18.766602,-49.227539c7.455078,-20.78418 27.962891,-32.46582 45.777344,-26.075195zm-145.224609,-46.073242c17.8125,6.390625 26.22168,28.444336 18.767578,49.228516c-7.455078,20.782227 -27.964844,32.464844 -45.779297,26.075195c-17.814453,-6.390625 -26.222656,-28.445313 -18.767578,-49.227539c7.455078,-20.783203 27.964844,-32.46582 45.779297,-26.076172zm-123.980469,-46.072266c17.814453,6.390625 26.220703,28.445313 18.765625,49.228516c-7.453125,20.782227 -27.960938,32.464844 -45.775391,26.075195c-17.816406,-6.390625 -26.224609,-28.445313 -18.769531,-49.228516c7.455078,-20.782227 27.964844,-32.464844 45.779297,-26.075195zm-139.578125,-46.072266c17.816406,6.390625 26.222656,28.444336 18.767578,49.228516c-7.455078,20.782227 -27.962891,32.464844 -45.777344,26.075195c-17.816406,-6.390625 -26.222656,-28.444336 -18.767578,-49.228516c7.455078,-20.782227 27.962891,-32.464844 45.777344,-26.075195zm-129.089844,-46.071289c17.814453,6.390625 26.222656,28.443359 18.767578,49.227539c-7.453125,20.783203 -27.962891,32.464844 -45.777344,26.075195c-17.814453,-6.390625 -26.222656,-28.444336 -18.767578,-49.227539c7.453125,-20.783203 27.962891,-32.464844 45.777344,-26.075195zm-123.710938,-46.072266c17.814453,6.390625 26.222656,28.445313 18.767578,49.227539c-7.455078,20.783203 -27.962891,32.46582 -45.777344,26.076172c-17.814453,-6.390625 -26.224609,-28.445313 -18.767578,-49.228516c7.455078,-20.782227 27.962891,-32.464844 45.777344,-26.075195zm-112.953125,-46.072266c17.814453,6.390625 26.222656,28.444336 18.767578,49.228516c-7.455078,20.783203 -27.962891,32.464844 -45.777344,26.075195c-17.816406,-6.390625 -26.222656,-28.445313 -18.767578,-49.227539c7.453125,-20.783203 27.960938,-32.46582 45.777344,-26.076172zm-129.089844,-46.071289c17.814453,6.390625 26.220703,28.443359 18.765625,49.227539c-7.453125,20.783203 -27.960938,32.464844 -45.775391,26.075195c-17.814453,-6.390625 -26.224609,-28.444336 -18.767578,-49.227539c7.455078,-20.783203 27.962891,-32.464844 45.777344,-26.075195z" id="Shadow Holes"/>
   <path fill="#201e21" fill-rule="evenodd" stroke="#000000" stroke-width="1px" d="m-11554.756836,11514.235352l66.625977,44.130859l48.487305,-9131.976318l-84.591797,48.439453l-30.521484,9039.406006zm-49.744141,-9037.091797l-48.755859,-49.04541l-41.875977,9196.709473l60.727539,-101.792969l29.904297,-9045.871094z" id="Post Inner Edge"/>
   <path fill="#5a595e" fill-rule="evenodd" stroke="#000000" stroke-width="1px" d="m-11486.861328,11559.616211l112.339844,-13.012695l15.798828,-9124.169434l-87.450195,0l-40.688477,9137.182129zm-168.147461,-9137.182129l-105.899414,0l-9.185547,9196.32666l95.012695,-4.649414l20.072266,-9191.677246z" id="Post Outer Edge"/>
   <path fill="#78787a" fill-rule="evenodd" stroke="#000000" stroke-width="1.001005px" id="Post Back" d="m-11518.786133,2473.115967l-94.958984,-2.160156l0.692383,9056.709229l83.583984,-13.248047l10.682617,-9041.301025zm-28.334961,9005.240479c0,18.925781 -12.958008,34.285156 -28.925781,34.285156c-15.966797,0 -28.925781,-15.359375 -28.925781,-34.285156c0,-18.928711 12.958984,-34.288086 28.925781,-34.288086c15.967773,0 28.925781,15.359375 28.925781,34.288086zm-1.460938,-137.092773c0,18.926758 -12.958984,34.287109 -28.924805,34.287109c-15.966797,0 -28.925781,-15.360352 -28.925781,-34.287109c0,-18.925781 12.958984,-34.286133 28.925781,-34.286133c15.96582,0 28.924805,15.360352 28.924805,34.286133zm0,-274.181641c0,18.926758 -12.958984,34.287109 -28.924805,34.287109c-15.966797,0 -28.925781,-15.360352 -28.925781,-34.287109c0,-18.925781 12.958984,-34.286133 28.925781,-34.286133c15.96582,0 28.924805,15.360352 28.924805,34.286133zm0,-137.09082c0,18.926758 -12.958984,34.287109 -28.924805,34.287109c-15.966797,0 -28.925781,-15.360352 -28.925781,-34.287109c0,-18.925781 12.958984,-34.286133 28.925781,-34.286133c15.96582,0 28.924805,15.360352 28.924805,34.286133zm0,274.182617c0,18.925781 -12.958984,34.286133 -28.924805,34.286133c-15.966797,0 -28.925781,-15.360352 -28.925781,-34.286133c0,-18.926758 12.958984,-34.288086 28.925781,-34.288086c15.96582,0 28.924805,15.361328 28.924805,34.288086zm0,-411.272461c0,18.925781 -12.958984,34.285156 -28.924805,34.285156c-15.966797,0 -28.925781,-15.359375 -28.925781,-34.285156c0,-18.927734 12.958984,-34.287109 28.925781,-34.287109c15.96582,0 28.924805,15.359375 28.924805,34.287109zm0,-137.092773c0,18.927734 -12.958984,34.288086 -28.924805,34.288086c-15.966797,0 -28.925781,-15.360352 -28.925781,-34.288086c0,-18.925781 12.958984,-34.285156 28.925781,-34.285156c15.96582,0 28.924805,15.359375 28.924805,34.285156zm0,-137.089844c0,18.925781 -12.958984,34.286133 -28.924805,34.286133c-15.966797,0 -28.925781,-15.360352 -28.925781,-34.286133c0,-18.925781 12.958984,-34.287109 28.925781,-34.287109c15.96582,0 28.924805,15.361328 28.924805,34.287109zm0,-137.09082c0,18.927734 -12.958984,34.288086 -28.924805,34.288086c-15.966797,0 -28.925781,-15.360352 -28.925781,-34.288086c0,-18.925781 12.958984,-34.286133 28.925781,-34.286133c15.96582,0 28.924805,15.360352 28.924805,34.286133zm0,-137.089844c0,18.925781 -12.958984,34.286133 -28.924805,34.286133c-15.966797,0 -28.925781,-15.360352 -28.925781,-34.286133c0,-18.925781 12.958984,-34.286133 28.925781,-34.286133c15.96582,0 28.924805,15.360352 28.924805,34.286133zm0,-137.09082c0,18.926758 -12.958984,34.287109 -28.924805,34.287109c-15.966797,0 -28.925781,-15.360352 -28.925781,-34.287109c0,-18.927734 12.958984,-34.287109 28.925781,-34.287109c15.96582,0 28.924805,15.359375 28.924805,34.287109zm0,-137.091797c0,18.926758 -12.958984,34.287109 -28.924805,34.287109c-15.966797,0 -28.925781,-15.360352 -28.925781,-34.287109c0,-18.925781 12.958984,-34.286133 28.925781,-34.286133c15.96582,0 28.924805,15.360352 28.924805,34.286133zm0,-137.09082c0,18.926758 -12.958984,34.287109 -28.924805,34.287109c-15.966797,0 -28.925781,-15.360352 -28.925781,-34.287109c0,-18.925781 12.958984,-34.286133 28.925781,-34.286133c15.96582,0 28.924805,15.360352 28.924805,34.286133zm0,-137.09082c0,18.926758 -12.958984,34.287109 -28.924805,34.287109c-15.966797,0 -28.925781,-15.360352 -28.925781,-34.287109c0,-18.925781 12.958984,-34.286133 28.925781,-34.286133c15.96582,0 28.924805,15.360352 28.924805,34.286133zm0,-137.09082c0,18.926758 -12.958984,34.287109 -28.924805,34.287109c-15.966797,0 -28.925781,-15.360352 -28.925781,-34.287109c0,-18.925781 12.958984,-34.286133 28.925781,-34.286133c15.96582,0 28.924805,15.360352 28.924805,34.286133zm0,-137.09082c0,18.926758 -12.958984,34.287109 -28.924805,34.287109c-15.966797,0 -28.925781,-15.360352 -28.925781,-34.287109c0,-18.925781 12.958984,-34.286133 28.925781,-34.286133c15.96582,0 28.924805,15.360352 28.924805,34.286133zm0,-137.09082c0,18.926758 -12.958984,34.287109 -28.924805,34.287109c-15.966797,0 -28.925781,-15.360352 -28.925781,-34.287109c0,-18.925781 12.958984,-34.286133 28.925781,-34.286133c15.96582,0 28.924805,15.360352 28.924805,34.286133zm0,-137.09082c0,18.926758 -12.958984,34.287109 -28.924805,34.287109c-15.966797,0 -28.925781,-15.360352 -28.925781,-34.287109c0,-18.925781 12.958984,-34.286133 28.925781,-34.286133c15.96582,0 28.924805,15.360352 28.924805,34.286133zm0,-137.09082c0,18.926758 -12.958984,34.287109 -28.924805,34.287109c-15.966797,0 -28.925781,-15.360352 -28.925781,-34.287109c0,-18.925781 12.958984,-34.286133 28.925781,-34.286133c15.96582,0 28.924805,15.360352 28.924805,34.286133zm0,-137.089844c0,18.925781 -12.958984,34.286133 -28.924805,34.286133c-15.966797,0 -28.925781,-15.360352 -28.925781,-34.286133c0,-18.926758 12.958984,-34.287109 28.925781,-34.287109c15.96582,0 28.924805,15.360352 28.924805,34.287109zm0,-137.09082c0,18.925781 -12.958984,34.286133 -28.924805,34.286133c-15.966797,0 -28.925781,-15.360352 -28.925781,-34.286133c0,-18.926758 12.958984,-34.287109 28.925781,-34.287109c15.96582,0 28.924805,15.360352 28.924805,34.287109zm0,-137.09082c0,18.925781 -12.958984,34.286133 -28.924805,34.286133c-15.966797,0 -28.925781,-15.360352 -28.925781,-34.286133c0,-18.926758 12.958984,-34.287109 28.925781,-34.287109c15.96582,0 28.924805,15.360352 28.924805,34.287109zm0,-137.09082c0,18.925781 -12.958984,34.286133 -28.924805,34.286133c-15.966797,0 -28.925781,-15.360352 -28.925781,-34.286133c0,-18.926758 12.958984,-34.287109 28.925781,-34.287109c15.96582,0 28.924805,15.360352 28.924805,34.287109zm0,-137.09082c0,18.925781 -12.958984,34.286133 -28.924805,34.286133c-15.966797,0 -28.925781,-15.360352 -28.925781,-34.286133c0,-18.926758 12.958984,-34.287109 28.925781,-34.287109c15.96582,0 28.924805,15.360352 28.924805,34.287109zm0,-137.091309c0,18.92627 -12.958984,34.286621 -28.924805,34.286621c-15.966797,0 -28.925781,-15.360352 -28.925781,-34.286621c0,-18.92627 12.958984,-34.286621 28.925781,-34.286621c15.96582,0 28.924805,15.360352 28.924805,34.286621zm0,-137.09082c0,18.926758 -12.958984,34.286621 -28.924805,34.286621c-15.966797,0 -28.925781,-15.359863 -28.925781,-34.286621c0,-18.92627 12.958984,-34.286621 28.925781,-34.286621c15.96582,0 28.924805,15.360352 28.924805,34.286621zm0,-137.09082c0,18.926758 -12.958984,34.287109 -28.924805,34.287109c-15.966797,0 -28.925781,-15.360352 -28.925781,-34.287109c0,-18.92627 12.958984,-34.286621 28.925781,-34.286621c15.96582,0 28.924805,15.360352 28.924805,34.286621zm0,-137.09082c0,18.926758 -12.958984,34.287109 -28.924805,34.287109c-15.966797,0 -28.925781,-15.360352 -28.925781,-34.287109c0,-18.92627 12.958984,-34.286621 28.925781,-34.286621c15.96582,0 28.924805,15.360352 28.924805,34.286621zm0,-137.09082c0,18.926758 -12.958984,34.287109 -28.924805,34.287109c-15.966797,0 -28.925781,-15.360352 -28.925781,-34.287109c0,-18.92627 12.958984,-34.286621 28.925781,-34.286621c15.96582,0 28.924805,15.360352 28.924805,34.286621zm0,-137.09082c0,18.926758 -12.958984,34.287109 -28.924805,34.287109c-15.966797,0 -28.925781,-15.360352 -28.925781,-34.287109c0,-18.92627 12.958984,-34.286621 28.925781,-34.286621c15.96582,0 28.924805,15.360352 28.924805,34.286621zm0,-137.09082c0,18.926758 -12.958984,34.287109 -28.924805,34.287109c-15.966797,0 -28.925781,-15.360352 -28.925781,-34.287109c0,-18.92627 12.958984,-34.286621 28.925781,-34.286621c15.96582,0 28.924805,15.360352 28.924805,34.286621zm0,-137.090332c0,18.92627 -12.958984,34.286621 -28.924805,34.286621c-15.966797,0 -28.925781,-15.360352 -28.925781,-34.286621c0,-18.926758 12.958984,-34.287109 28.925781,-34.287109c15.96582,0 28.924805,15.360352 28.924805,34.287109zm0,-137.09082c0,18.92627 -12.958984,34.286621 -28.924805,34.286621c-15.966797,0 -28.925781,-15.360352 -28.925781,-34.286621c0,-18.926758 12.958984,-34.287109 28.925781,-34.287109c15.96582,0 28.924805,15.360352 28.924805,34.287109zm0,-137.09082c0,18.92627 -12.958984,34.286621 -28.924805,34.286621c-15.966797,0 -28.925781,-15.360352 -28.925781,-34.286621c0,-18.92627 12.958984,-34.287109 28.925781,-34.287109c15.96582,0 28.924805,15.36084 28.924805,34.287109zm0,-137.09082c0,18.92627 -12.958984,34.286621 -28.924805,34.286621c-15.966797,0 -28.925781,-15.360352 -28.925781,-34.286621c0,-18.926758 12.958984,-34.287109 28.925781,-34.287109c15.96582,0 28.924805,15.360352 28.924805,34.287109zm0,-137.09082c0,18.92627 -12.958984,34.286621 -28.924805,34.286621c-15.966797,0 -28.925781,-15.360352 -28.925781,-34.286621c0,-18.92627 12.958984,-34.286621 28.925781,-34.286621c15.96582,0 28.924805,15.360352 28.924805,34.286621zm0,-137.09082c0,18.92627 -12.958984,34.286621 -28.924805,34.286621c-15.966797,0 -28.925781,-15.360352 -28.925781,-34.286621c0,-18.92627 12.958984,-34.286621 28.925781,-34.286621c15.96582,0 28.924805,15.360352 28.924805,34.286621zm0,-137.09082c0,18.92627 -12.958984,34.286621 -28.924805,34.286621c-15.966797,0 -28.925781,-15.360352 -28.925781,-34.286621c0,-18.92627 12.958984,-34.286621 28.925781,-34.286621c15.96582,0 28.924805,15.360352 28.924805,34.286621zm0,-137.09082c0,18.92627 -12.958984,34.286621 -28.924805,34.286621c-15.966797,0 -28.925781,-15.360352 -28.925781,-34.286621c0,-18.92627 12.958984,-34.286621 28.925781,-34.286621c15.96582,0 28.924805,15.360352 28.924805,34.286621zm0,-137.09082c0,18.92627 -12.958984,34.286621 -28.924805,34.286621c-15.966797,0 -28.925781,-15.360352 -28.925781,-34.286621c0,-18.92627 12.958984,-34.286621 28.925781,-34.286621c15.96582,0 28.924805,15.360352 28.924805,34.286621zm0,-137.09082c0,18.92627 -12.958984,34.286621 -28.924805,34.286621c-15.966797,0 -28.925781,-15.360352 -28.925781,-34.286621c0,-18.92627 12.958984,-34.286621 28.925781,-34.286621c15.96582,0 28.924805,15.360352 28.924805,34.286621zm0,-137.09082c0,18.92627 -12.958984,34.286621 -28.924805,34.286621c-15.966797,0 -28.925781,-15.360352 -28.925781,-34.286621c0,-18.92627 12.958984,-34.286621 28.925781,-34.286621c15.96582,0 28.924805,15.360352 28.924805,34.286621zm0,-137.09082c0,18.92627 -12.958984,34.286621 -28.924805,34.286621c-15.966797,0 -28.925781,-15.360352 -28.925781,-34.286621c0,-18.92627 12.958984,-34.286621 28.925781,-34.286621c15.96582,0 28.924805,15.360352 28.924805,34.286621zm0,-137.09082c0,18.92627 -12.958984,34.286621 -28.924805,34.286621c-15.966797,0 -28.925781,-15.360352 -28.925781,-34.286621c0,-18.92627 12.958984,-34.286621 28.925781,-34.286621c15.96582,0 28.924805,15.360352 28.924805,34.286621zm0,-137.09082c0,18.926758 -12.958984,34.286621 -28.924805,34.286621c-15.966797,0 -28.925781,-15.359863 -28.925781,-34.286621c0,-18.92627 12.958984,-34.286621 28.925781,-34.286621c15.96582,0 28.924805,15.360352 28.924805,34.286621zm0,-137.09082c0,18.926758 -12.958984,34.287109 -28.924805,34.287109c-15.966797,0 -28.925781,-15.360352 -28.925781,-34.287109c0,-18.92627 12.958984,-34.286621 28.925781,-34.286621c15.96582,0 28.924805,15.360352 28.924805,34.286621zm0,-137.09082c0,18.926758 -12.958984,34.287109 -28.924805,34.287109c-15.966797,0 -28.925781,-15.360352 -28.925781,-34.287109c0,-18.92627 12.958984,-34.286621 28.925781,-34.286621c15.96582,0 28.924805,15.360352 28.924805,34.286621zm0,-137.09082c0,18.92627 -12.958984,34.286621 -28.924805,34.286621c-15.966797,0 -28.925781,-15.360352 -28.925781,-34.286621c0,-18.926758 12.958984,-34.286621 28.925781,-34.286621c15.96582,0 28.924805,15.359863 28.924805,34.286621zm0,-137.091309c0,18.926758 -12.958984,34.287109 -28.924805,34.287109c-15.966797,0 -28.925781,-15.360352 -28.925781,-34.287109c0,-18.92627 12.958984,-34.286621 28.925781,-34.286621c15.96582,0 28.924805,15.360352 28.924805,34.286621zm0,-137.09082c0,18.92627 -12.958984,34.286621 -28.924805,34.286621c-15.966797,0 -28.925781,-15.360352 -28.925781,-34.286621c0,-18.92627 12.958984,-34.286621 28.925781,-34.286621c15.96582,0 28.924805,15.360352 28.924805,34.286621zm7.799805,-1960.972168c0,18.92627 -12.958984,34.286865 -28.924805,34.286865c-15.966797,0 -28.925781,-15.360596 -28.925781,-34.286865c0,-18.926514 12.958984,-34.286621 28.925781,-34.286621c15.96582,0 28.924805,15.360107 28.924805,34.286621zm-2.599609,1298.904785c0,18.92627 -12.958984,34.286621 -28.924805,34.286621c-15.967773,0 -28.926758,-15.360352 -28.926758,-34.286621c0,-18.926514 12.958984,-34.286865 28.926758,-34.286865c15.96582,0 28.924805,15.360352 28.924805,34.286865zm2.599609,-1044.346436c0,18.926514 -12.958984,34.286865 -28.924805,34.286865c-15.966797,0 -28.925781,-15.360352 -28.925781,-34.286865c0,-18.92627 12.958984,-34.286621 28.925781,-34.286621c15.96582,0 28.924805,15.360352 28.924805,34.286621zm0,-137.091064c0,18.926514 -12.958984,34.286865 -28.924805,34.286865c-15.966797,0 -28.925781,-15.360352 -28.925781,-34.286865c0,-18.92627 12.958984,-34.286621 28.925781,-34.286621c15.96582,0 28.924805,15.360352 28.924805,34.286621zm0,-254.55835c0,18.926514 -12.958984,34.286865 -28.924805,34.286865c-15.966797,0 -28.925781,-15.360352 -28.925781,-34.286865c0,-18.92627 12.958984,-34.286621 28.925781,-34.286621c15.96582,0 28.924805,15.360352 28.924805,34.286621zm1.44043,-119.494385c0,18.926514 -12.958984,34.286865 -28.924805,34.286865c-15.967773,0 -28.926758,-15.360352 -28.926758,-34.286865c0,-18.92627 12.958984,-34.286621 28.926758,-34.286621c15.96582,0 28.924805,15.360352 28.924805,34.286621zm-6.640625,1036.120117c0,18.926514 -12.958984,34.286865 -28.924805,34.286865c-15.966797,0 -28.925781,-15.360352 -28.925781,-34.286865c0,-18.92627 12.958984,-34.286621 28.925781,-34.286621c15.96582,0 28.924805,15.360352 28.924805,34.286621zm6.061523,-137.09082c0,18.92627 -12.958984,34.286621 -28.924805,34.286621c-15.967773,0 -28.926758,-15.360352 -28.926758,-34.286621c0,-18.92627 12.958984,-34.286865 28.926758,-34.286865c15.96582,0 28.924805,15.360596 28.924805,34.286865zm-0.861328,-125.245605c0,18.92627 -12.958984,34.286621 -28.924805,34.286621c-15.966797,0 -28.925781,-15.360352 -28.925781,-34.286621c0,-18.926514 12.958984,-34.286865 28.925781,-34.286865c15.96582,0 28.924805,15.360352 28.924805,34.286865zm0,-133.050537c0,18.926514 -12.958984,34.286865 -28.924805,34.286865c-15.966797,0 -28.925781,-15.360352 -28.925781,-34.286865c0,-18.92627 12.958984,-34.286621 28.925781,-34.286621c15.96582,0 28.924805,15.360352 28.924805,34.286621zm-6.640625,1044.346436c0,18.92627 -12.958984,34.286621 -28.924805,34.286621c-15.967773,0 -28.926758,-15.360352 -28.926758,-34.286621c0,-18.92627 12.958984,-34.286621 28.926758,-34.286621c15.96582,0 28.924805,15.360352 28.924805,34.286621zm4.041016,-266.68042c0,18.92627 -12.958984,34.286865 -28.924805,34.286865c-15.967773,0 -28.926758,-15.360596 -28.926758,-34.286865c0,-18.92627 12.958984,-34.286621 28.926758,-34.286621c15.96582,0 28.924805,15.360352 28.924805,34.286621zm0,-117.467529c0,18.926514 -12.958984,34.286865 -28.924805,34.286865c-15.967773,0 -28.926758,-15.360352 -28.926758,-34.286865c0,-18.92627 12.958984,-34.286621 28.926758,-34.286621c15.96582,0 28.924805,15.360352 28.924805,34.286621zm0,-137.09082c0,18.92627 -12.958984,34.286621 -28.924805,34.286621c-15.967773,0 -28.926758,-15.360352 -28.926758,-34.286621c0,-18.92627 12.958984,-34.286865 28.926758,-34.286865c15.96582,0 28.924805,15.360596 28.924805,34.286865zm-1.15918,916.625488c0,18.926758 -12.958984,34.287109 -28.924805,34.287109c-15.966797,0 -28.925781,-15.360352 -28.925781,-34.287109c0,-18.92627 12.958984,-34.286621 28.925781,-34.286621c15.96582,0 28.924805,15.360352 28.924805,34.286621zm0,-137.09082c0,18.92627 -12.958984,34.286621 -28.924805,34.286621c-15.966797,0 -28.925781,-15.360352 -28.925781,-34.286621c0,-18.92627 12.958984,-34.286621 28.925781,-34.286621c15.96582,0 28.924805,15.360352 28.924805,34.286621zm-2.881836,-121.205078c0,18.926758 -12.958984,34.287109 -28.924805,34.287109c-15.967773,0 -28.926758,-15.360352 -28.926758,-34.287109c0,-18.92627 12.958984,-34.286621 28.926758,-34.286621c15.96582,0 28.924805,15.360352 28.924805,34.286621z"/>
  </g>
 </g>
</svg>